<svg xmlns="http://www.w3.org/2000/svg" width="256" height="256" viewBox="0 0 100 100"><rect width="100" height="100" rx="0" fill="#0f172a"></rect><path fill="#fde047" d="M10.15 50.50L10.15 39.27Q10.15 29.48 14.83 24.08Q19.51 18.68 27.86 18.68L27.86 18.68Q36.21 18.68 40.89 24.08Q45.57 29.48 45.57 39.27L45.57 39.27L45.57 50.50Q45.57 59.72 41.65 64.94Q37.72 70.16 30.67 70.95L30.67 70.95L30.67 73.98Q30.67 76.14 32.61 76.14L32.61 76.14L38.66 76.14L38.66 81.32L30.60 81.32Q28.15 81.32 26.60 79.74Q25.05 78.15 25.05 75.70L25.05 75.70L25.05 70.95Q17.92 70.09 14.04 64.90Q10.15 59.72 10.15 50.50L10.15 50.50ZM27.86 65.48L27.86 65.48Q33.69 65.48 36.61 61.48Q39.52 57.49 39.52 50.07L39.52 50.07L39.52 39.70Q39.52 32.79 36.61 28.54Q33.69 24.30 27.86 24.30L27.86 24.30Q22.03 24.30 19.11 28.54Q16.20 32.79 16.20 39.70L16.20 39.70L16.20 50.07Q16.20 57.49 19.11 61.48Q22.03 65.48 27.86 65.48ZM54.14 39.56L54.14 34.38L67.10 34.38L67.10 39.13L67.96 39.13Q69.33 36.18 71.85 34.77Q74.37 33.37 77.61 33.37L77.61 33.37Q83.01 33.37 86.32 36.90Q89.64 40.42 89.85 47.19L89.85 47.19L83.95 48.06Q83.95 43.09 81.57 40.89Q79.20 38.70 75.74 38.70L75.74 38.70Q73.51 38.70 71.89 39.56Q70.27 40.42 69.19 41.94Q68.11 43.45 67.60 45.46Q67.10 47.48 67.10 49.78L67.10 49.78L67.10 64.90L76.17 64.90L76.17 70.09L53.28 70.09L53.28 64.90L61.48 64.90L61.48 39.56L54.14 39.56Z"></path></svg>